<?xml version="1.0" encoding="UTF-8"?>
<svg width="512" height="512" viewBox="-5 -5 60 60" version="1.1" xmlns="http://www.w3.org/2000/svg">
  <g fill="#F53B57" fill-rule="nonzero">
    <path d="M7.81249874,50 L27.3437437,50 L27.3437437,43.7415661 L6.24999915,43.7415661 L6.24999915,18.8251759 C6.24994352,18.7534463 6.28496343,18.6862343 6.34374913,18.6452459 L24.8203068,6.30830802 C24.9294498,6.23678003 25.0705387,6.23678003 25.1796817,6.30830802 L43.6562394,18.6452459 C43.7150251,18.6862343 43.750045,18.7534463 43.7499894,18.8251759 L43.7499894,30.4423939 L50,30.4423939 L50,18.8251759 C50.0041871,16.6595868 48.9247632,14.6358724 47.1249885,13.4350997 L28.6484308,1.1059848 C26.4390494,-0.368661602 23.5609392,-0.368661602 21.3515577,1.1059848 L2.88281252,13.4350997 C1.08113511,14.6350504 -0.00105505952,16.6584525 0,18.8251759 L0,50 L7.81249874,50 Z"/>
    <path d="M24.0025403,15.7022333 C19.3148045,15.6995152 15.1178529,18.6076949 13.4730361,22.9984095 C11.8282193,27.3891241 13.0811313,32.3398364 16.616399,35.4189832 C20.1516666,38.49813 25.2264917,39.0587488 29.3483523,36.8254893 L38.5871354,46.0744398 L43.130273,41.5302506 L33.883463,32.2893287 C35.7664941,28.8067823 35.6788441,24.5901555 33.6527212,21.1889054 C31.6265984,17.7876553 27.9608632,15.7034789 24.0025403,15.7022333 Z M19.4019851,27.0918107 C19.4019851,24.4708566 21.5266884,22.3461534 24.1476427,22.3461534 C26.768597,22.3461534 28.8933002,24.4708566 28.8933002,27.0918107 C28.8933002,29.7127649 26.768597,31.837468 24.1476427,31.837468 C21.5266884,31.837468 19.4019851,29.7127649 19.4019851,27.0918107 L19.4019851,27.0918107 Z"/>
  </g>
</svg>
